<?xml version="1.0" encoding="iso-8859-1"?>
<!-- Generator: Adobe Illustrator 19.0.0, SVG Export Plug-In . SVG Version: 6.00 Build 0)  -->
<svg xmlns="http://www.w3.org/2000/svg" xmlns:xlink="http://www.w3.org/1999/xlink" version="1.1" id="Layer_1" x="0px" y="0px" viewBox="0 0 503.607 503.607" style="enable-background:new 0 0 503.607 503.607;" xml:space="preserve" width="512px" height="512px">
<g>
	<g>
		<g>
			<path d="M470.352,104.918H33.246C14.907,104.918,0,119.833,0,138.164v218.884c0,18.331,14.907,33.246,33.246,33.246h42.291     c0,4.633,3.76,8.393,8.393,8.393h8.393c4.633,0,8.393-3.76,8.393-8.393h8.393c0,4.633,3.76,8.393,8.393,8.393h8.393     c4.633,0,8.393-3.76,8.393-8.393h8.393c0,4.633,3.76,8.393,8.393,8.393h8.393c4.633,0,8.393-3.76,8.393-8.393h302.486     c18.34,0,33.255-14.915,33.255-33.246V138.164C503.607,119.833,488.691,104.918,470.352,104.918z M486.82,138.164v80.385     c-4.943-2.867-10.675-4.517-16.79-4.517c-6.114,0-11.845,1.65-16.787,4.515v-96.843h17.109     C479.433,121.705,486.82,129.091,486.82,138.164z M486.816,247.607c0,9.258-7.529,16.787-16.787,16.787     c-9.258,0-16.787-7.529-16.787-16.787c0-9.258,7.529-16.787,16.787-16.787C479.287,230.82,486.816,238.349,486.816,247.607z      M16.787,357.049V138.164c0-9.073,7.378-16.46,16.46-16.46h17.111v251.803H33.246C24.165,373.508,16.787,366.122,16.787,357.049z      M67.144,373.508V121.705h115.995l-23.551,141.304c-0.764,4.574,2.325,8.905,6.891,9.661c0.47,0.084,0.94,0.117,1.393,0.117     c4.029,0,7.588-2.912,8.268-7.008l24.012-144.073h103.293l24.012,144.073c0.68,4.096,4.239,7.008,8.268,7.008     c0.453,0,0.923-0.034,1.393-0.117c4.566-0.755,7.655-5.086,6.891-9.661L320.46,121.705h115.996v251.803H67.144z M470.352,373.508     h-17.109v-96.843c4.942,2.866,10.673,4.515,16.787,4.515c6.115,0,11.847-1.65,16.79-4.517v80.385     C486.82,366.122,479.433,373.508,470.352,373.508z" fill="#0363b4"/>
			<path d="M33.57,205.639c-4.633,0-8.393,3.76-8.393,8.393V256c0,4.633,3.76,8.393,8.393,8.393s8.393-3.76,8.393-8.393v-41.967     C41.964,209.4,38.204,205.639,33.57,205.639z" fill="#0363b4"/>
			<path d="M33.57,272.787c-4.633,0-8.393,3.76-8.393,8.393v8.393c0,4.633,3.76,8.393,8.393,8.393s8.393-3.76,8.393-8.393v-8.393     C41.964,276.547,38.204,272.787,33.57,272.787z" fill="#0363b4"/>
			<path d="M386.095,289.574c-18.516,0-33.574,15.058-33.574,33.574s15.058,33.574,33.574,33.574s33.574-15.058,33.574-33.574     S404.611,289.574,386.095,289.574z M386.095,339.934c-9.258,0-16.787-7.529-16.787-16.787c0-9.258,7.529-16.787,16.787-16.787     s16.787,7.529,16.787,16.787C402.882,332.405,395.353,339.934,386.095,339.934z" fill="#0363b4"/>
			<path d="M173.8,292.025c-3.29-3.282-8.603-3.265-11.877,0.008c-3.273,3.29-3.265,8.603,0.008,11.877l19.246,19.196     l-19.255,19.288c-3.273,3.29-3.265,8.603,0.008,11.877c1.645,1.637,3.794,2.451,5.934,2.451c2.149,0,4.306-0.823,5.943-2.459     l25.18-25.239c1.57-1.578,2.451-3.718,2.451-5.943s-0.89-4.356-2.459-5.934L173.8,292.025z" fill="#0363b4"/>
			<path d="M123.447,292.033c-3.273-3.265-8.586-3.29-11.877-0.008l-25.18,25.122c-1.57,1.578-2.459,3.71-2.459,5.934     s0.881,4.365,2.451,5.943l25.18,25.239c1.637,1.637,3.794,2.459,5.943,2.459c2.14,0,4.289-0.814,5.934-2.451     c3.273-3.273,3.282-8.587,0.008-11.877l-19.255-19.288l19.246-19.196C126.712,300.636,126.721,295.323,123.447,292.033z" fill="#0363b4"/>
			<path d="M327.34,289.574h-33.574c-4.633,0-8.393,3.76-8.393,8.393v50.361c0,4.633,3.76,8.393,8.393,8.393h33.574     c4.633,0,8.393-3.76,8.393-8.393v-50.361C335.733,293.334,331.973,289.574,327.34,289.574z M318.947,339.934H302.16v-33.574     h16.787V339.934z" fill="#0363b4"/>
		</g>
	</g>
</g>
<g>
</g>
<g>
</g>
<g>
</g>
<g>
</g>
<g>
</g>
<g>
</g>
<g>
</g>
<g>
</g>
<g>
</g>
<g>
</g>
<g>
</g>
<g>
</g>
<g>
</g>
<g>
</g>
<g>
</g>
</svg>
